<?xml version="1.0" encoding="UTF-8" ?>
<!DOCTYPE svg PUBLIC "-//W3C//DTD SVG 1.1//EN" "http://www.w3.org/Graphics/SVG/1.1/DTD/svg11.dtd">
<svg width="265pt" height="265pt" viewBox="0 0 265 265" version="1.1" xmlns="http://www.w3.org/2000/svg">
<g id="#fdfdfdff">
<path fill="#fdfdfd" opacity="1.00" d=" M 0.00 0.00 L 265.00 0.00 L 265.00 265.00 L 0.00 265.00 L 0.00 0.00 M 79.76 9.82 C 55.80 33.87 31.63 57.72 7.70 81.80 C 7.66 115.69 7.70 149.57 7.69 183.45 C 32.49 208.07 57.09 232.87 81.85 257.52 C 116.00 257.61 150.16 257.56 184.31 257.54 C 209.07 232.91 233.74 208.19 258.50 183.55 C 258.51 149.52 258.56 115.49 258.48 81.46 C 234.23 57.41 210.03 33.31 185.87 9.18 C 184.83 8.11 183.60 7.09 181.99 7.42 C 149.31 7.42 116.63 7.42 83.96 7.42 C 82.08 7.04 80.98 8.75 79.76 9.82 Z" />
<path fill="#fdfdfd" opacity="1.00" d=" M 86.22 20.07 C 87.11 18.94 88.70 19.41 89.93 19.25 C 119.85 19.39 149.78 19.08 179.69 19.40 C 202.53 41.77 225.08 64.48 247.80 87.00 C 247.80 117.95 247.83 148.91 247.78 179.87 C 225.21 202.34 202.57 224.74 180.03 247.24 C 148.96 247.24 117.90 247.17 86.84 247.27 C 64.16 224.88 41.67 202.30 19.11 179.79 C 19.08 148.87 19.13 117.96 19.09 87.04 C 41.41 64.66 63.84 42.39 86.22 20.07 M 96.65 31.07 C 98.10 34.17 98.18 40.11 102.96 39.40 C 124.09 39.33 145.22 39.48 166.35 39.32 C 167.87 36.35 168.92 33.15 169.54 29.87 C 145.64 29.46 121.72 29.67 97.81 29.76 C 97.52 30.09 96.94 30.74 96.65 31.07 M 180.00 35.23 C 178.75 37.58 177.50 39.94 176.55 42.43 C 175.84 44.06 177.58 45.33 178.49 46.46 C 184.86 52.66 191.00 59.11 197.47 65.22 C 199.88 63.31 202.03 61.12 204.07 58.82 C 200.22 53.48 194.98 49.37 190.54 44.55 C 187.02 41.45 184.29 37.32 180.00 35.23 M 63.89 58.29 C 65.70 60.94 68.05 63.15 70.56 65.14 C 75.25 60.97 79.43 56.28 83.91 51.89 C 86.58 49.18 89.56 46.70 91.65 43.47 C 90.31 40.68 89.00 37.85 87.17 35.32 C 78.89 42.41 71.60 50.60 63.89 58.29 M 102.31 44.47 C 102.72 47.55 104.12 50.41 105.47 53.19 C 113.74 53.23 122.00 53.22 130.26 53.19 C 129.90 50.17 131.72 45.95 129.04 43.78 C 122.38 43.33 115.69 43.73 109.01 43.59 C 106.78 43.74 104.29 43.12 102.31 44.47 M 136.47 53.13 C 142.66 53.31 148.85 53.16 155.04 53.22 C 157.21 53.17 159.47 53.38 161.55 52.60 C 162.80 49.82 164.03 46.91 163.87 43.79 C 154.78 43.62 145.68 43.67 136.59 43.77 C 136.28 46.88 136.29 50.01 136.47 53.13 M 174.04 49.02 C 173.02 52.24 168.56 56.08 171.70 59.31 C 176.89 64.66 182.19 69.90 187.54 75.09 C 189.95 73.19 192.17 71.07 194.15 68.72 C 191.01 64.01 186.45 60.50 182.64 56.36 C 179.88 53.81 177.68 50.40 174.04 49.02 M 89.00 52.89 C 78.53 63.46 67.88 73.84 57.37 84.37 C 54.71 87.12 51.73 89.60 49.59 92.81 C 52.56 94.16 55.55 97.02 58.95 96.31 C 62.31 93.92 64.90 90.64 67.83 87.78 C 76.67 78.97 85.42 70.07 94.26 61.25 C 95.55 59.95 96.69 58.50 97.83 57.06 C 96.37 54.39 95.69 51.05 93.09 49.18 C 91.59 50.26 90.28 51.57 89.00 52.89 M 108.46 58.81 C 108.87 61.35 109.89 63.74 110.66 66.19 C 110.99 66.56 111.66 67.32 111.99 67.69 C 124.33 67.88 136.66 67.69 149.00 67.79 C 150.76 67.74 152.58 67.90 154.28 67.35 C 156.03 64.67 156.71 61.48 157.46 58.41 C 144.33 57.67 131.15 58.31 118.00 58.09 C 114.83 58.29 111.46 57.50 108.46 58.81 M 202.03 69.35 C 207.32 75.88 213.81 81.32 219.56 87.44 C 220.95 88.56 222.07 90.51 224.04 90.49 C 226.75 89.44 229.67 88.41 231.70 86.23 C 229.20 82.52 225.55 79.82 222.56 76.53 C 217.96 72.18 213.79 67.37 208.95 63.29 C 206.05 64.49 204.18 67.21 202.03 69.35 M 49.00 73.01 C 44.72 77.74 39.53 81.66 35.86 86.92 C 38.79 88.28 41.67 90.88 45.08 90.49 C 52.49 84.03 59.06 76.60 66.10 69.72 C 63.93 67.48 62.13 64.13 58.88 63.51 C 55.26 66.31 52.31 69.87 49.00 73.01 M 164.97 72.70 C 168.75 77.18 173.20 81.07 177.31 85.26 C 179.43 83.01 183.42 81.42 183.38 77.95 C 178.64 72.90 174.02 67.52 168.36 63.47 C 167.11 66.40 163.85 69.35 164.97 72.70 M 86.11 76.14 C 78.97 83.50 71.60 90.63 64.47 97.99 C 67.09 100.74 72.60 104.52 75.69 100.52 C 83.44 92.67 91.28 84.91 99.01 77.04 C 100.44 75.48 102.40 74.20 102.98 72.06 C 102.13 69.16 100.53 66.55 99.01 63.96 C 94.15 67.39 90.47 72.15 86.11 76.14 M 197.28 74.04 C 195.49 75.55 193.88 77.27 192.44 79.12 C 194.36 82.74 198.01 85.11 200.70 88.16 C 203.88 90.88 206.29 94.63 210.02 96.61 C 212.86 95.88 215.66 94.56 217.85 92.59 C 216.98 90.21 214.73 88.75 213.08 86.94 C 208.28 82.47 204.16 77.28 199.06 73.13 C 198.62 73.36 197.73 73.81 197.28 74.04 M 122.57 80.78 C 108.52 83.41 95.65 91.92 87.93 103.99 C 81.09 114.67 77.94 127.85 79.90 140.44 C 82.05 155.63 91.11 169.74 104.17 177.82 C 117.62 186.33 134.99 188.49 149.99 183.02 C 163.80 178.31 175.39 167.57 181.09 154.14 C 186.85 141.34 186.99 126.20 181.75 113.21 C 177.41 102.25 169.27 92.83 159.04 86.97 C 148.13 80.69 134.95 78.29 122.57 80.78 M 181.88 89.87 C 185.83 93.79 189.54 98.00 193.81 101.56 C 197.32 102.49 200.36 99.35 203.28 97.83 C 198.82 92.81 194.04 88.05 189.08 83.54 C 185.80 83.99 184.05 87.63 181.88 89.87 M 30.81 96.27 C 30.60 119.19 30.94 142.11 30.87 165.03 C 30.86 166.26 30.99 169.30 32.91 168.43 C 36.10 167.32 41.49 166.67 40.82 162.10 C 40.75 142.38 40.67 122.65 40.59 102.93 C 40.51 101.59 40.67 100.11 39.87 98.95 C 37.11 97.40 33.97 96.49 30.81 96.27 M 224.57 103.02 C 224.85 124.12 223.90 145.25 224.74 166.34 C 227.78 167.47 230.82 168.86 234.12 168.97 C 234.43 146.30 234.26 123.62 234.38 100.94 C 234.10 99.52 234.97 97.14 233.07 96.62 C 229.76 97.84 223.82 98.07 224.57 103.02 M 44.81 128.70 C 47.92 129.28 51.14 129.47 54.26 128.89 C 54.98 122.64 54.18 116.33 54.46 110.05 C 54.23 107.98 55.05 105.33 53.32 103.76 C 50.78 102.56 48.02 101.89 45.28 101.31 C 44.25 110.39 45.02 119.58 44.81 128.70 M 211.84 104.67 C 210.17 105.93 210.73 108.19 210.57 109.99 C 210.72 124.64 210.42 139.28 210.47 153.93 C 210.58 156.30 210.12 158.83 211.10 161.07 C 213.72 162.33 216.50 163.34 219.38 163.79 C 220.20 162.32 220.18 160.62 220.18 158.98 C 220.20 144.97 220.39 130.96 220.38 116.95 C 220.42 112.01 220.84 107.05 220.11 102.14 C 217.24 102.52 214.44 103.41 211.84 104.67 M 59.11 112.99 C 59.18 118.17 59.05 123.35 59.20 128.53 C 62.34 129.54 65.66 129.18 68.87 128.81 C 69.10 122.82 69.42 116.77 68.59 110.82 C 65.75 109.78 62.95 108.62 59.99 107.97 C 58.84 109.39 59.18 111.30 59.11 112.99 M 196.95 110.91 C 195.94 112.39 196.20 114.26 196.10 115.95 C 196.13 120.56 196.07 125.17 196.18 129.78 C 198.86 130.06 201.60 130.42 204.29 129.99 C 206.39 129.25 205.70 126.75 205.89 125.04 C 205.72 119.37 206.25 113.65 205.46 108.01 C 202.56 108.76 199.64 109.58 196.95 110.91 M 45.24 135.36 C 44.64 139.88 44.91 144.44 44.87 148.99 C 44.95 153.73 44.55 158.50 45.39 163.20 C 48.16 162.42 50.96 161.66 53.54 160.39 C 54.73 159.29 54.60 157.52 54.69 156.05 C 54.66 149.10 54.63 142.16 54.44 135.22 C 51.39 134.80 48.28 134.77 45.24 135.36 M 59.41 136.21 C 59.15 143.05 58.75 150.03 59.71 156.83 C 62.80 156.33 65.97 155.50 68.61 153.77 C 69.78 147.70 68.90 141.40 69.12 135.25 C 65.98 135.06 61.84 133.57 59.41 136.21 M 196.34 135.89 C 195.79 141.98 195.53 148.19 196.57 154.24 C 199.46 155.41 202.40 156.54 205.53 156.91 C 206.08 150.07 205.85 143.18 205.69 136.32 C 202.59 135.84 199.46 135.75 196.34 135.89 M 171.22 184.17 C 168.45 187.11 164.97 189.56 163.06 193.19 C 164.04 196.01 164.98 199.67 167.74 201.18 C 176.32 193.28 184.32 184.76 192.72 176.66 C 195.87 173.52 199.33 170.62 201.87 166.92 C 199.29 165.26 196.48 163.99 193.69 162.72 C 185.51 169.08 178.81 177.13 171.22 184.17 M 62.21 167.41 C 64.28 170.41 67.03 172.83 69.53 175.45 C 75.92 181.74 82.14 188.21 88.53 194.52 C 91.26 197.15 93.59 200.35 97.07 202.06 C 98.37 199.44 99.91 196.90 100.83 194.11 C 100.02 191.78 97.96 190.23 96.32 188.51 C 89.09 181.15 81.74 173.91 74.53 166.54 C 73.15 165.41 71.92 163.51 69.94 163.60 C 67.22 164.53 64.69 165.96 62.21 167.41 M 47.19 172.83 C 52.00 178.99 58.09 184.01 63.36 189.77 C 64.46 190.65 65.33 192.35 66.93 192.24 C 69.35 190.55 71.23 188.24 73.20 186.07 C 67.23 180.23 61.84 173.68 55.19 168.59 C 52.43 169.81 49.68 171.09 47.19 172.83 M 208.09 169.02 C 205.35 170.07 203.69 172.73 201.56 174.63 C 193.95 181.98 186.54 189.54 179.01 196.96 C 175.45 200.60 171.52 203.93 168.43 207.99 C 168.91 210.86 170.45 213.50 172.08 215.88 C 172.44 215.86 173.15 215.82 173.51 215.80 C 186.92 203.15 199.78 189.90 213.01 177.06 C 214.24 175.86 215.56 174.66 216.16 173.00 C 213.94 170.96 211.01 169.67 208.09 169.02 M 33.42 178.95 C 40.61 187.19 48.58 194.77 56.46 202.37 C 58.99 200.51 61.25 198.33 63.33 195.99 C 57.15 189.37 50.64 183.05 44.26 176.61 C 41.03 172.94 36.65 177.49 33.42 178.95 M 219.51 176.42 C 207.21 188.47 195.01 200.65 182.77 212.77 C 179.77 215.67 176.63 218.47 174.21 221.89 C 175.77 224.50 176.27 228.18 179.02 229.83 C 180.79 228.70 182.20 227.12 183.68 225.65 C 195.08 214.41 206.46 203.14 217.86 191.88 C 221.96 187.62 226.47 183.75 230.29 179.21 C 227.29 177.32 222.84 173.12 219.51 176.42 M 71.37 197.72 C 75.54 202.19 80.04 206.33 84.24 210.77 C 86.42 212.76 88.15 215.58 91.12 216.43 C 92.58 214.06 93.84 211.55 94.76 208.93 C 94.71 207.19 93.13 206.09 92.09 204.89 C 87.19 200.20 82.66 195.14 77.68 190.54 C 75.22 192.56 72.37 194.54 71.37 197.72 M 109.89 198.38 C 108.97 201.29 107.51 204.11 107.45 207.22 C 114.25 207.95 121.16 207.51 128.00 207.42 C 128.49 204.32 128.42 201.17 128.25 198.05 C 122.15 197.75 115.95 197.41 109.89 198.38 M 134.38 198.18 C 134.21 201.17 134.13 204.17 134.39 207.16 C 141.38 207.93 148.47 207.58 155.49 207.40 C 155.62 207.10 155.88 206.50 156.01 206.20 C 154.84 203.37 155.02 198.31 151.13 198.00 C 145.56 197.73 139.95 197.71 134.38 198.18 M 62.83 204.81 C 61.58 205.68 61.26 207.43 62.41 208.55 C 66.76 213.26 71.54 217.55 75.94 222.22 C 78.88 225.06 81.45 228.40 85.08 230.42 C 86.27 227.17 90.87 222.93 87.23 219.78 C 80.72 213.34 74.36 206.75 67.81 200.36 C 66.05 201.73 64.34 203.16 62.83 204.81 M 102.83 212.97 C 101.91 215.80 100.81 218.58 100.32 221.54 C 115.50 222.46 130.76 222.00 145.97 222.13 C 151.46 222.03 156.98 222.43 162.44 221.67 C 161.71 218.81 160.88 215.95 159.62 213.28 C 157.99 212.11 155.84 212.52 153.97 212.40 C 138.30 212.52 122.64 212.12 106.98 212.29 C 105.56 212.29 104.18 212.61 102.83 212.97 M 97.76 226.59 C 96.90 229.54 95.14 232.36 95.22 235.52 C 98.74 236.38 102.41 236.00 106.00 236.07 C 113.37 235.96 120.76 236.33 128.12 235.75 C 128.32 232.61 128.31 229.47 128.14 226.34 C 118.02 226.26 107.85 225.78 97.76 226.59 M 134.33 226.39 C 134.26 229.38 133.83 232.44 134.51 235.39 C 138.88 236.64 143.51 235.85 148.00 236.06 C 154.65 235.84 161.39 236.61 167.99 235.49 C 167.14 232.62 166.39 229.66 164.99 227.00 C 163.13 226.04 160.97 226.32 158.96 226.26 C 150.75 226.36 142.54 226.15 134.33 226.39 Z" />
<path fill="#fdfdfd" opacity="1.00" d=" M 111.17 110.64 C 118.25 104.10 125.63 97.88 132.94 91.59 C 140.14 97.96 147.53 104.13 154.64 110.61 C 140.15 110.78 125.66 110.74 111.17 110.64 Z" />
<path fill="#fdfdfd" opacity="1.00" d=" M 85.12 111.43 C 95.39 114.85 105.45 118.89 115.64 122.54 C 116.60 127.49 117.65 132.41 118.59 137.36 C 106.88 141.55 95.19 145.79 83.48 149.98 C 79.24 137.51 79.83 123.49 85.12 111.43 Z" />
<path fill="#fdfdfd" opacity="1.00" d=" M 150.24 122.45 C 160.08 118.96 169.82 115.19 179.67 111.73 C 184.85 123.60 185.43 137.32 181.35 149.60 C 169.90 145.61 158.55 141.34 147.10 137.36 C 148.25 132.41 149.06 127.39 150.24 122.45 Z" />
<path fill="#fdfdfd" opacity="1.00" d=" M 118.03 115.21 C 127.91 115.08 137.78 115.17 147.66 115.17 C 145.79 126.62 143.84 138.07 141.76 149.48 C 135.85 149.53 129.94 149.53 124.04 149.49 C 121.81 138.10 120.15 126.62 118.03 115.21 Z" />
<path fill="#fdfdfd" opacity="1.00" d=" M 118.74 152.17 C 128.17 152.01 137.61 152.01 147.05 152.16 C 145.88 153.96 144.67 155.74 143.48 157.53 C 136.48 157.59 129.44 157.86 122.46 157.43 C 120.97 155.87 119.91 153.96 118.74 152.17 Z" />
<path fill="#fdfdfd" opacity="1.00" d=" M 122.76 160.36 C 129.47 160.24 136.19 160.29 142.91 160.35 C 142.95 162.28 142.96 164.21 142.94 166.14 C 136.19 166.18 129.45 166.20 122.70 166.12 C 122.72 164.20 122.73 162.28 122.76 160.36 Z" />
<path fill="#fdfdfd" opacity="1.00" d=" M 127.15 169.90 C 130.98 169.83 134.80 169.87 138.63 169.87 C 138.93 174.62 139.14 179.37 139.36 184.13 C 135.02 184.44 130.67 184.49 126.33 184.19 C 126.69 179.43 127.05 174.67 127.15 169.90 Z" />
</g>
<g id="#010101ff">
<path fill="#010101" opacity="1.00" d=" M 79.76 9.82 C 80.98 8.75 82.08 7.04 83.96 7.42 C 116.63 7.42 149.31 7.42 181.99 7.42 C 183.60 7.09 184.83 8.11 185.87 9.18 C 210.03 33.31 234.23 57.41 258.48 81.46 C 258.56 115.49 258.51 149.52 258.50 183.55 C 233.74 208.19 209.07 232.91 184.31 257.54 C 150.16 257.56 116.00 257.61 81.85 257.52 C 57.09 232.87 32.49 208.07 7.69 183.45 C 7.70 149.57 7.66 115.69 7.70 81.80 C 31.63 57.72 55.80 33.87 79.76 9.82 M 86.22 20.07 C 63.84 42.39 41.41 64.66 19.09 87.04 C 19.13 117.96 19.08 148.87 19.11 179.79 C 41.67 202.30 64.16 224.88 86.84 247.27 C 117.90 247.17 148.96 247.24 180.03 247.24 C 202.57 224.74 225.21 202.34 247.78 179.87 C 247.83 148.91 247.80 117.95 247.80 87.00 C 225.08 64.48 202.53 41.77 179.69 19.40 C 149.78 19.08 119.85 19.39 89.93 19.25 C 88.70 19.41 87.11 18.94 86.22 20.07 Z" />
<path fill="#010101" opacity="1.00" d=" M 96.65 31.07 C 96.94 30.74 97.52 30.09 97.81 29.76 C 121.72 29.67 145.64 29.46 169.54 29.87 C 168.92 33.15 167.87 36.35 166.35 39.32 C 145.22 39.48 124.09 39.33 102.96 39.40 C 98.18 40.11 98.10 34.17 96.65 31.07 Z" />
<path fill="#010101" opacity="1.00" d=" M 180.00 35.23 C 184.29 37.32 187.02 41.45 190.54 44.55 C 194.98 49.37 200.22 53.48 204.07 58.82 C 202.03 61.12 199.88 63.31 197.47 65.22 C 191.00 59.11 184.86 52.66 178.49 46.46 C 177.58 45.33 175.84 44.06 176.55 42.43 C 177.50 39.94 178.75 37.58 180.00 35.23 Z" />
<path fill="#010101" opacity="1.00" d=" M 63.89 58.29 C 71.60 50.60 78.89 42.41 87.17 35.32 C 89.00 37.85 90.31 40.68 91.65 43.47 C 89.56 46.70 86.58 49.18 83.91 51.89 C 79.43 56.28 75.25 60.97 70.56 65.14 C 68.05 63.15 65.70 60.94 63.89 58.29 Z" />
<path fill="#010101" opacity="1.00" d=" M 102.31 44.47 C 104.29 43.12 106.78 43.74 109.01 43.59 C 115.69 43.73 122.38 43.33 129.04 43.78 C 131.72 45.95 129.90 50.17 130.26 53.19 C 122.00 53.22 113.74 53.23 105.47 53.19 C 104.12 50.41 102.72 47.55 102.31 44.47 Z" />
<path fill="#010101" opacity="1.00" d=" M 136.47 53.13 C 136.29 50.01 136.28 46.88 136.59 43.77 C 145.68 43.67 154.78 43.62 163.87 43.79 C 164.03 46.91 162.80 49.82 161.55 52.60 C 159.47 53.38 157.21 53.17 155.04 53.22 C 148.85 53.16 142.66 53.31 136.47 53.13 Z" />
<path fill="#010101" opacity="1.00" d=" M 174.04 49.02 C 177.68 50.40 179.88 53.81 182.64 56.36 C 186.45 60.50 191.01 64.01 194.15 68.72 C 192.17 71.07 189.95 73.19 187.54 75.09 C 182.19 69.90 176.89 64.66 171.70 59.31 C 168.56 56.08 173.02 52.24 174.04 49.02 Z" />
<path fill="#010101" opacity="1.00" d=" M 89.00 52.89 C 90.28 51.57 91.59 50.26 93.09 49.18 C 95.69 51.05 96.37 54.39 97.83 57.06 C 96.69 58.50 95.55 59.95 94.26 61.25 C 85.42 70.07 76.67 78.97 67.83 87.78 C 64.90 90.64 62.31 93.92 58.95 96.31 C 55.55 97.02 52.56 94.16 49.59 92.81 C 51.73 89.60 54.71 87.12 57.37 84.37 C 67.88 73.84 78.53 63.46 89.00 52.89 Z" />
<path fill="#010101" opacity="1.00" d=" M 108.46 58.81 C 111.46 57.50 114.83 58.29 118.00 58.09 C 131.15 58.31 144.33 57.67 157.46 58.41 C 156.71 61.48 156.03 64.67 154.28 67.35 C 152.58 67.90 150.76 67.74 149.00 67.79 C 136.66 67.69 124.33 67.88 111.99 67.69 C 111.66 67.32 110.99 66.56 110.66 66.19 C 109.89 63.74 108.87 61.35 108.46 58.81 Z" />
<path fill="#010101" opacity="1.00" d=" M 202.03 69.35 C 204.18 67.21 206.05 64.49 208.95 63.29 C 213.79 67.37 217.96 72.18 222.56 76.53 C 225.55 79.82 229.20 82.52 231.70 86.23 C 229.67 88.41 226.75 89.44 224.04 90.49 C 222.07 90.51 220.95 88.56 219.56 87.44 C 213.81 81.32 207.32 75.88 202.03 69.35 Z" />
<path fill="#010101" opacity="1.00" d=" M 49.00 73.01 C 52.31 69.87 55.26 66.31 58.88 63.51 C 62.13 64.13 63.93 67.48 66.10 69.72 C 59.06 76.60 52.49 84.03 45.08 90.49 C 41.67 90.88 38.79 88.28 35.86 86.92 C 39.53 81.66 44.72 77.74 49.00 73.01 Z" />
<path fill="#010101" opacity="1.00" d=" M 164.97 72.70 C 163.85 69.35 167.11 66.40 168.36 63.47 C 174.02 67.52 178.64 72.90 183.38 77.95 C 183.42 81.42 179.43 83.01 177.31 85.26 C 173.20 81.07 168.75 77.18 164.97 72.70 Z" />
<path fill="#010101" opacity="1.00" d=" M 86.11 76.14 C 90.47 72.15 94.15 67.39 99.01 63.96 C 100.53 66.55 102.13 69.16 102.98 72.06 C 102.40 74.20 100.44 75.48 99.01 77.04 C 91.28 84.91 83.44 92.67 75.69 100.52 C 72.60 104.52 67.09 100.74 64.47 97.99 C 71.60 90.63 78.97 83.50 86.11 76.14 Z" />
<path fill="#010101" opacity="1.00" d=" M 197.28 74.04 C 197.73 73.81 198.62 73.36 199.06 73.13 C 204.16 77.28 208.28 82.47 213.08 86.94 C 214.73 88.75 216.98 90.21 217.85 92.59 C 215.66 94.56 212.86 95.88 210.02 96.61 C 206.29 94.63 203.88 90.88 200.70 88.16 C 198.01 85.11 194.36 82.74 192.44 79.12 C 193.88 77.27 195.49 75.55 197.28 74.04 Z" />
<path fill="#010101" opacity="1.00" d=" M 122.57 80.78 C 134.95 78.29 148.13 80.69 159.04 86.97 C 169.27 92.83 177.41 102.25 181.75 113.21 C 186.99 126.20 186.85 141.34 181.09 154.14 C 175.39 167.57 163.80 178.31 149.99 183.02 C 134.99 188.49 117.62 186.33 104.17 177.82 C 91.11 169.74 82.05 155.63 79.90 140.44 C 77.94 127.85 81.09 114.67 87.93 103.99 C 95.65 91.92 108.52 83.41 122.57 80.78 M 111.17 110.64 C 125.66 110.74 140.15 110.78 154.64 110.61 C 147.53 104.13 140.14 97.96 132.94 91.59 C 125.63 97.88 118.25 104.10 111.17 110.64 M 85.12 111.43 C 79.83 123.49 79.24 137.51 83.48 149.98 C 95.19 145.79 106.88 141.55 118.59 137.36 C 117.65 132.41 116.60 127.49 115.64 122.54 C 105.45 118.89 95.39 114.85 85.12 111.43 M 150.24 122.45 C 149.06 127.39 148.25 132.41 147.10 137.36 C 158.55 141.34 169.90 145.61 181.35 149.60 C 185.43 137.32 184.85 123.60 179.67 111.73 C 169.82 115.19 160.08 118.96 150.24 122.45 M 118.03 115.21 C 120.15 126.62 121.81 138.10 124.04 149.49 C 129.94 149.53 135.85 149.53 141.76 149.48 C 143.84 138.07 145.79 126.62 147.66 115.17 C 137.78 115.17 127.91 115.08 118.03 115.21 M 118.74 152.17 C 119.91 153.96 120.97 155.87 122.46 157.43 C 129.44 157.86 136.48 157.59 143.48 157.53 C 144.67 155.74 145.88 153.96 147.05 152.16 C 137.61 152.01 128.17 152.01 118.74 152.17 M 122.76 160.36 C 122.73 162.28 122.72 164.20 122.70 166.12 C 129.45 166.20 136.19 166.18 142.94 166.14 C 142.96 164.21 142.95 162.28 142.91 160.35 C 136.19 160.29 129.47 160.24 122.76 160.36 M 127.15 169.90 C 127.05 174.67 126.69 179.43 126.33 184.19 C 130.67 184.49 135.02 184.44 139.36 184.13 C 139.14 179.37 138.93 174.62 138.63 169.87 C 134.80 169.87 130.98 169.83 127.15 169.90 Z" />
<path fill="#010101" opacity="1.00" d=" M 181.88 89.87 C 184.05 87.63 185.80 83.99 189.08 83.54 C 194.04 88.05 198.82 92.81 203.28 97.83 C 200.36 99.35 197.32 102.49 193.81 101.56 C 189.54 98.00 185.83 93.79 181.88 89.87 Z" />
<path fill="#010101" opacity="1.00" d=" M 30.81 96.27 C 33.97 96.49 37.11 97.40 39.87 98.95 C 40.67 100.11 40.51 101.59 40.59 102.93 C 40.67 122.65 40.75 142.38 40.82 162.10 C 41.49 166.67 36.10 167.32 32.91 168.43 C 30.99 169.30 30.86 166.26 30.87 165.03 C 30.94 142.11 30.60 119.19 30.81 96.27 Z" />
<path fill="#010101" opacity="1.00" d=" M 224.57 103.02 C 223.82 98.07 229.76 97.84 233.07 96.62 C 234.97 97.14 234.10 99.52 234.38 100.94 C 234.26 123.62 234.43 146.30 234.12 168.97 C 230.82 168.86 227.78 167.47 224.74 166.34 C 223.90 145.25 224.85 124.12 224.57 103.02 Z" />
<path fill="#010101" opacity="1.00" d=" M 44.81 128.70 C 45.02 119.58 44.25 110.39 45.28 101.31 C 48.02 101.89 50.78 102.56 53.32 103.76 C 55.05 105.33 54.23 107.98 54.46 110.05 C 54.18 116.33 54.98 122.64 54.26 128.89 C 51.14 129.47 47.92 129.28 44.81 128.70 Z" />
<path fill="#010101" opacity="1.00" d=" M 211.84 104.67 C 214.44 103.41 217.24 102.52 220.11 102.14 C 220.84 107.05 220.42 112.01 220.38 116.95 C 220.39 130.96 220.20 144.97 220.18 158.98 C 220.18 160.62 220.20 162.32 219.38 163.79 C 216.50 163.34 213.72 162.33 211.10 161.07 C 210.12 158.83 210.58 156.30 210.47 153.93 C 210.42 139.28 210.72 124.64 210.57 109.99 C 210.73 108.19 210.17 105.93 211.84 104.67 Z" />
<path fill="#010101" opacity="1.00" d=" M 59.11 112.99 C 59.18 111.30 58.84 109.39 59.99 107.97 C 62.95 108.62 65.75 109.78 68.59 110.82 C 69.42 116.77 69.10 122.82 68.87 128.81 C 65.66 129.18 62.34 129.54 59.20 128.53 C 59.05 123.35 59.18 118.17 59.11 112.99 Z" />
<path fill="#010101" opacity="1.00" d=" M 196.95 110.91 C 199.64 109.58 202.56 108.76 205.46 108.01 C 206.25 113.65 205.72 119.37 205.89 125.04 C 205.70 126.75 206.39 129.25 204.29 129.99 C 201.60 130.42 198.86 130.06 196.18 129.78 C 196.07 125.17 196.13 120.56 196.10 115.95 C 196.20 114.26 195.94 112.39 196.95 110.91 Z" />
<path fill="#010101" opacity="1.00" d=" M 45.24 135.36 C 48.28 134.77 51.39 134.80 54.44 135.22 C 54.63 142.16 54.66 149.10 54.69 156.05 C 54.60 157.52 54.73 159.29 53.54 160.39 C 50.96 161.66 48.16 162.42 45.39 163.20 C 44.55 158.50 44.95 153.73 44.87 148.99 C 44.91 144.44 44.64 139.88 45.24 135.36 Z" />
<path fill="#010101" opacity="1.00" d=" M 59.41 136.21 C 61.84 133.57 65.98 135.06 69.12 135.25 C 68.90 141.40 69.78 147.70 68.61 153.77 C 65.97 155.50 62.80 156.33 59.71 156.83 C 58.75 150.03 59.15 143.05 59.41 136.21 Z" />
<path fill="#010101" opacity="1.00" d=" M 196.34 135.89 C 199.46 135.75 202.59 135.84 205.69 136.32 C 205.85 143.18 206.08 150.07 205.53 156.91 C 202.40 156.54 199.46 155.41 196.57 154.24 C 195.53 148.19 195.79 141.98 196.34 135.89 Z" />
<path fill="#010101" opacity="1.00" d=" M 171.22 184.17 C 178.81 177.13 185.51 169.08 193.69 162.72 C 196.48 163.99 199.29 165.26 201.87 166.92 C 199.33 170.62 195.87 173.52 192.72 176.66 C 184.32 184.76 176.32 193.28 167.74 201.18 C 164.98 199.67 164.04 196.01 163.06 193.19 C 164.97 189.56 168.45 187.11 171.22 184.17 Z" />
<path fill="#010101" opacity="1.00" d=" M 62.21 167.41 C 64.69 165.96 67.22 164.53 69.94 163.60 C 71.92 163.51 73.15 165.41 74.53 166.54 C 81.74 173.91 89.09 181.15 96.32 188.51 C 97.96 190.23 100.02 191.78 100.83 194.11 C 99.91 196.90 98.37 199.44 97.07 202.06 C 93.59 200.35 91.26 197.15 88.53 194.52 C 82.14 188.21 75.92 181.74 69.53 175.45 C 67.03 172.83 64.28 170.41 62.21 167.41 Z" />
<path fill="#010101" opacity="1.00" d=" M 47.19 172.83 C 49.68 171.09 52.43 169.81 55.19 168.59 C 61.84 173.68 67.23 180.23 73.20 186.07 C 71.23 188.24 69.35 190.55 66.93 192.24 C 65.33 192.35 64.46 190.65 63.36 189.77 C 58.09 184.01 52.00 178.99 47.19 172.83 Z" />
<path fill="#010101" opacity="1.00" d=" M 208.09 169.02 C 211.01 169.67 213.94 170.96 216.16 173.00 C 215.56 174.66 214.24 175.86 213.01 177.06 C 199.78 189.90 186.92 203.15 173.51 215.80 C 173.15 215.82 172.44 215.86 172.08 215.88 C 170.45 213.50 168.91 210.86 168.43 207.99 C 171.52 203.93 175.45 200.60 179.01 196.96 C 186.54 189.54 193.95 181.98 201.56 174.63 C 203.69 172.73 205.35 170.07 208.09 169.02 Z" />
<path fill="#010101" opacity="1.00" d=" M 33.42 178.95 C 36.65 177.49 41.03 172.94 44.26 176.61 C 50.64 183.05 57.15 189.37 63.33 195.99 C 61.25 198.33 58.99 200.51 56.46 202.37 C 48.58 194.77 40.61 187.19 33.42 178.95 Z" />
<path fill="#010101" opacity="1.00" d=" M 219.51 176.42 C 222.84 173.12 227.29 177.32 230.29 179.21 C 226.47 183.75 221.96 187.62 217.86 191.88 C 206.46 203.14 195.08 214.41 183.68 225.65 C 182.20 227.12 180.79 228.70 179.02 229.83 C 176.27 228.18 175.77 224.50 174.21 221.89 C 176.63 218.47 179.77 215.67 182.77 212.77 C 195.01 200.65 207.21 188.47 219.51 176.42 Z" />
<path fill="#010101" opacity="1.00" d=" M 71.37 197.72 C 72.37 194.54 75.22 192.56 77.68 190.54 C 82.66 195.14 87.19 200.20 92.09 204.89 C 93.13 206.09 94.71 207.19 94.76 208.93 C 93.84 211.55 92.58 214.06 91.12 216.43 C 88.15 215.58 86.42 212.76 84.24 210.77 C 80.04 206.33 75.54 202.19 71.37 197.72 Z" />
<path fill="#010101" opacity="1.00" d=" M 109.89 198.38 C 115.95 197.41 122.15 197.75 128.25 198.05 C 128.42 201.17 128.49 204.32 128.00 207.42 C 121.16 207.51 114.25 207.95 107.45 207.22 C 107.51 204.11 108.97 201.29 109.89 198.38 Z" />
<path fill="#010101" opacity="1.00" d=" M 134.38 198.18 C 139.95 197.71 145.56 197.73 151.13 198.00 C 155.02 198.31 154.84 203.37 156.01 206.20 C 155.88 206.50 155.62 207.10 155.49 207.40 C 148.47 207.58 141.38 207.93 134.39 207.16 C 134.13 204.17 134.21 201.17 134.38 198.18 Z" />
<path fill="#010101" opacity="1.00" d=" M 62.83 204.81 C 64.34 203.16 66.05 201.73 67.81 200.36 C 74.36 206.75 80.72 213.34 87.23 219.78 C 90.87 222.93 86.27 227.17 85.08 230.42 C 81.45 228.40 78.88 225.06 75.94 222.22 C 71.54 217.55 66.76 213.26 62.41 208.55 C 61.26 207.43 61.58 205.68 62.83 204.81 Z" />
<path fill="#010101" opacity="1.00" d=" M 102.83 212.97 C 104.18 212.61 105.56 212.29 106.98 212.29 C 122.64 212.12 138.30 212.52 153.97 212.40 C 155.84 212.52 157.99 212.11 159.62 213.28 C 160.88 215.95 161.71 218.81 162.44 221.67 C 156.98 222.43 151.46 222.03 145.97 222.13 C 130.76 222.00 115.50 222.46 100.32 221.54 C 100.81 218.58 101.91 215.80 102.83 212.97 Z" />
<path fill="#010101" opacity="1.00" d=" M 97.76 226.59 C 107.85 225.78 118.02 226.26 128.14 226.34 C 128.31 229.47 128.32 232.61 128.12 235.75 C 120.76 236.33 113.37 235.96 106.00 236.07 C 102.41 236.00 98.74 236.38 95.22 235.52 C 95.14 232.36 96.90 229.54 97.76 226.59 Z" />
<path fill="#010101" opacity="1.00" d=" M 134.33 226.39 C 142.54 226.15 150.75 226.36 158.96 226.26 C 160.97 226.32 163.13 226.04 164.99 227.00 C 166.39 229.66 167.14 232.62 167.99 235.49 C 161.39 236.61 154.65 235.84 148.00 236.06 C 143.51 235.85 138.88 236.64 134.51 235.39 C 133.83 232.44 134.26 229.38 134.33 226.39 Z" />
</g>
</svg>
